<svg width="301" height="302" viewBox="0 0 301 302" fill="none" xmlns="http://www.w3.org/2000/svg">
  <g clip-path="url(#clip0_7_235)">
    <path
      d="M265.885 70.9896C246.555 70.9896 230.885 55.3195 230.885 35.9896C230.885 16.6596 246.555 0.989563 265.885 0.989563C285.215 0.989563 300.885 16.6596 300.885 35.9896C300.885 55.3195 285.215 70.9896 265.885 70.9896Z"
      fill="#F3DFAA" />
    <path
      d="M150.885 300.99C233.728 300.99 300.885 233.832 300.885 150.99C300.885 68.1469 233.728 0.989563 150.885 0.989563C68.0423 0.989563 0.88501 68.1469 0.88501 150.99C0.88501 233.832 68.0423 300.99 150.885 300.99Z"
      fill="#FEF3F0" />
    <path
      d="M35.885 300.24C16.9693 300.24 1.63501 284.905 1.63501 265.99C1.63501 247.074 16.9693 231.74 35.885 231.74C54.8008 231.74 70.135 247.074 70.135 265.99C70.135 284.905 54.8008 300.24 35.885 300.24Z"
      stroke="#F3ECAA" stroke-width="1.5" />
    <path opacity="0.1"
      d="M116.858 226.488C138.409 226.488 155.88 223.187 155.88 219.116C155.88 215.044 138.409 211.743 116.858 211.743C95.3062 211.743 77.8352 215.044 77.8352 219.116C77.8352 223.187 95.3062 226.488 116.858 226.488Z"
      fill="#2CB674" />
    <path
      d="M156.964 135.242L150.176 130.679L153.6 125.596L135.673 124.171L129.231 129.139L121.168 124.63L114.442 125.437L114.363 123.669C114.279 121.826 114.094 119.989 113.806 118.166C113.835 117.614 113.855 116.98 113.853 116.29C113.853 113.384 113.458 109.532 111.726 106.964L112.124 103.389L108.889 99.576C109.409 98.5438 110.001 97.5498 110.662 96.6014C110.773 96.4423 110.884 96.2876 111.003 96.1373C115.202 95.8346 118.515 92.3915 118.515 88.1816C118.515 87.9871 118.515 87.7926 118.493 87.6004C118.493 87.523 118.478 87.4435 118.469 87.3661C118.879 87.5871 119.293 87.8081 119.707 88.0291C119.785 88.1396 119.874 88.2501 119.971 88.3805L119.991 88.4048L120.115 88.5573L120.155 88.6037C120.199 88.6567 120.246 88.7075 120.292 88.7606L120.323 88.7959C120.441 88.9263 120.565 89.0589 120.698 89.1893C120.714 89.2021 120.729 89.2162 120.742 89.2313L120.908 89.386L120.955 89.428C121.097 89.5539 121.247 89.6755 121.398 89.7904L121.447 89.8258L121.637 89.9561L121.7 89.9959C121.773 90.0401 121.848 90.0865 121.921 90.1285L121.948 90.144C122.034 90.1904 122.123 90.2346 122.211 90.2766L122.256 90.2943C122.331 90.3267 122.405 90.3576 122.477 90.3871L122.546 90.4114C122.624 90.4379 122.699 90.4622 122.779 90.4843L122.827 90.4976C122.925 90.5219 123.022 90.5418 123.122 90.5572H123.133C123.227 90.5724 123.322 90.582 123.417 90.586H123.481C123.566 90.5904 123.651 90.5904 123.736 90.586H123.791C123.898 90.5799 124.003 90.5673 124.108 90.5484C124.604 90.4834 125.08 90.3131 125.504 90.049C125.612 89.9769 125.708 89.8882 125.788 89.786C126.231 89.207 125.744 88.5727 125.744 88.5727C125.571 88.1617 124.449 87.8722 124.449 87.8722C124.449 87.8722 120.904 86.3959 120.904 85.2203C120.904 84.0446 120.018 77.9452 110.868 76.5507C110.868 76.5507 104.916 76.217 103.243 79.3949L103.208 79.7662C102.716 80.0733 102.308 80.6899 101.823 80.8711C101.613 80.916 101.411 80.9904 101.222 81.0921V81.0501C101.166 81.099 101.12 81.1583 101.087 81.2247C100.983 81.4316 100.92 81.6568 100.903 81.8877C100.853 82.1697 100.755 82.4411 100.613 82.6899C100.573 82.7606 100.529 82.8285 100.48 82.8932L100.442 82.9529C100.699 82.9729 100.958 82.9312 101.196 82.8313C101.158 83.1339 101.084 83.4308 100.974 83.7153C101.115 83.7198 101.254 83.6839 101.375 83.6119C101.496 83.5398 101.594 83.4345 101.656 83.3087V83.291L101.685 83.2512C101.741 83.1489 101.787 83.0416 101.823 82.9308L101.798 82.9573C101.843 82.8137 101.882 82.6678 101.931 82.5264C101.954 82.4467 101.99 82.3718 102.04 82.3054C102.099 82.2459 102.171 82.2011 102.251 82.1746C102.331 82.1482 102.415 82.1407 102.499 82.1529L102.408 84.0689H102.448C102.394 84.2083 102.329 84.3428 102.253 84.4711C101.938 84.9794 101.366 85.3263 101.156 85.8832C101.065 86.1518 101.03 86.4361 101.054 86.7186C101.054 86.8843 101.074 87.0523 101.087 87.218V87.2048C101.118 87.6468 101.127 88.0667 100.888 88.4225C100.724 88.6655 100.46 88.849 100.369 89.1252C100.344 89.2022 100.333 89.283 100.336 89.3639C100.354 89.6061 100.404 89.8447 100.486 90.0733C100.487 90.0689 100.487 90.0644 100.486 90.06C100.542 90.2281 100.555 90.4073 100.524 90.5816C100.424 91.0235 99.8859 91.3926 99.9125 91.8147C99.911 91.8702 99.9192 91.9256 99.9369 91.9782C100.041 92.1844 100.22 92.3427 100.438 92.4202C100.779 92.614 101.172 92.7002 101.563 92.6677C101.71 92.6413 101.852 92.5929 101.984 92.5241C101.829 92.8799 101.67 93.2313 101.508 93.565C101.484 93.618 101.457 93.671 101.43 93.7241C101.43 93.7241 100.061 92.8114 99.2832 94.6721C99.0561 95.0588 98.8937 95.4798 98.8023 95.9185C98.7634 96.094 98.7085 96.2656 98.6384 96.4312C98.2931 97.0142 97.7763 97.4772 97.1581 97.7572C95.5715 98.4821 89.163 106.454 89.05 108.518C88.9946 109.323 88.858 110.122 88.6423 110.9C88.1378 112.733 88.0082 114.649 88.2612 116.533C88.3403 117.142 88.4716 117.743 88.6534 118.33C89.3337 120.392 89.7879 124.239 89.7879 124.239L90.5236 130.918C90.4963 131.839 90.5363 132.762 90.6433 133.678C89.8921 134.533 86.8762 138.098 88.0285 139.068C88.9149 139.832 90.466 139.706 91.3369 139.55C90.6034 141.36 89.4489 144.506 89.296 146.668C89.0744 149.866 89.6749 154.102 90.6256 155.728C91.5762 157.355 94.745 161.527 94.745 161.527C94.745 161.527 94.5965 167.251 95.7288 169.331C96.8612 171.41 97.3177 175.724 97.3177 175.724C97.3177 175.724 98.3747 179.366 97.8451 180.705C97.3154 182.044 98.8267 183.158 97.2401 184.049C95.6535 184.939 93.6237 205.012 93.6237 205.012C93.6237 205.012 92.806 218.168 93.6237 218.837C93.6675 218.869 93.7142 218.897 93.7633 218.919V223.339C93.7633 223.339 93.196 224.267 95.5028 224.455C97.0828 224.581 101.561 224.866 104.218 225.032L106.277 225.16C106.277 225.16 111.152 226.128 113.306 225.16C115.459 224.192 119.278 224.214 118.71 221.657C118.635 221.309 118.534 220.967 118.409 220.634C117.786 219.047 116.729 218.866 114.781 218.424C114.668 218.4 114.56 218.378 114.46 218.36C112.408 218.004 111.734 218.957 110.584 217.717C109.585 216.645 106.403 215.445 105.319 215.065C105.346 214.986 105.379 214.908 105.406 214.826C105.099 214.775 104.814 214.636 104.584 214.426L107.52 214.612L109.268 214.72C109.268 214.72 113.412 215.545 115.251 214.72C117.09 213.896 120.326 213.918 119.843 211.746C119.779 211.45 119.694 211.159 119.588 210.875C119.058 209.527 118.158 209.379 116.503 209.005C116.408 208.986 116.319 208.966 116.231 208.95C114.487 208.647 113.915 209.456 112.938 208.404C112.1 207.507 109.457 206.502 108.506 206.159C108.506 205.668 107.841 204.97 107.422 204.27C106.93 203.452 107.839 200.59 107.839 200.59L108.357 188.716C108.555 188.628 108.764 188.569 108.978 188.539C108.978 188.539 111.322 186.307 110.793 183.929C110.685 183.21 110.629 182.484 110.624 181.757C111.395 181.043 112.457 179.989 112.758 179.339C113.25 178.281 112.758 173.152 112.758 173.152V153.538L116.68 153.934L120.239 154.299L121.323 154.409L124.882 154.767L133.061 155.591L140.431 154.199L143.619 153.598L150.176 152.361V136.361L156.964 135.242ZM102.982 82.2236L102.525 82.175C102.676 82.1816 102.835 82.2103 102.982 82.2236Z"
      fill="url(#paint0_linear_7_235)" />
    <path
      d="M141.056 145.631C138.84 148.794 130.873 147.119 130.873 147.119L124.7 141.357L123.869 140.577L125.263 137.625C125.263 137.625 125.706 137.746 126.466 137.963C130.457 139.119 142.926 142.973 141.056 145.631Z"
      fill="#EFB7B9" />
    <path opacity="0.1"
      d="M126.461 137.963C126.189 138.909 125.442 140.325 124.7 141.357L123.869 140.577L125.263 137.625C125.263 137.625 125.71 137.746 126.461 137.963Z"
      fill="black" />
    <path
      d="M105.288 104.668C105.288 104.668 99.5978 107.185 99.877 113.366C100.078 117.348 100.513 121.315 101.18 125.247C101.18 125.247 100.017 134.548 104.861 136.946C109.705 139.344 114.187 141.315 114.187 141.315C114.187 141.315 121.766 142.128 122.708 142.464C123.649 142.8 126.592 137.664 126.049 136.864C125.506 136.064 118.551 134.387 117.664 133.052C116.778 131.718 114.728 130.893 114.728 130.893C114.728 130.893 112.612 129.616 112.468 128.462C112.324 127.309 112.882 126.449 113.024 125.943C113.166 125.437 113.525 120.551 113.525 120.551C113.525 120.551 115.914 103.159 105.288 104.668Z"
      fill="#DCE6F2" />
    <path opacity="0.1"
      d="M109.044 124.993C109.044 124.993 101.238 126.297 101.993 129.021C101.993 129.021 104.827 126.08 109.044 124.993Z"
      fill="black" />
    <path opacity="0.1"
      d="M109.104 126.096C109.104 126.096 104.812 129.589 105.652 129.768C106.492 129.947 109.104 126.096 109.104 126.096Z"
      fill="black" />
    <path opacity="0.1"
      d="M111.167 127.313C111.167 127.313 110.017 129.662 110.724 129.503C111.431 129.344 111.167 127.313 111.167 127.313Z"
      fill="black" />
    <path opacity="0.1"
      d="M126.75 138.212L126.275 138.078C126.411 137.636 126.448 137.278 126.337 137.112C125.795 136.312 118.843 134.637 117.959 133.3C117.075 131.963 115.023 131.141 115.023 131.141C115.023 131.141 112.907 129.863 112.763 128.71C112.619 127.556 113.177 126.696 113.319 126.19C113.461 125.684 113.82 120.796 113.82 120.796C113.82 120.796 116.202 103.406 105.576 104.915C105.576 104.915 99.8859 107.435 100.163 113.616C100.364 117.598 100.8 121.565 101.468 125.496C101.468 125.496 100.305 134.798 105.149 137.196C109.993 139.594 114.476 141.565 114.476 141.565C114.476 141.565 122.052 142.376 122.996 142.714C123.353 142.842 123.997 142.181 124.629 141.273L124.988 141.607L131.161 147.366C131.161 147.366 139.128 149.043 141.344 145.881C143.216 143.22 130.749 139.366 126.75 138.212Z"
      fill="black" />
    <path
      d="M102.013 81.4677C101.796 81.51 101.588 81.59 101.399 81.7041C101.178 81.8876 101.178 82.2014 101.122 82.4754C101.057 82.8566 100.906 83.2179 100.679 83.5317C100.931 83.5502 101.184 83.5085 101.417 83.4102C101.379 83.7127 101.305 84.0095 101.195 84.2942C101.334 84.2977 101.47 84.2614 101.588 84.1896C101.705 84.1179 101.8 84.0138 101.86 83.8897C101.977 83.6407 102.07 83.3809 102.137 83.1141C102.158 83.0342 102.194 82.9592 102.244 82.8931C102.447 82.6522 102.826 82.7605 103.141 82.7914C103.403 82.8134 103.666 82.7652 103.903 82.6517C104.14 82.5383 104.342 82.3637 104.488 82.1461C104.823 81.64 104.843 80.345 104.045 80.208C103.212 80.071 102.693 81.2157 102.013 81.4677Z"
      fill="#965D7B" />
    <g opacity="0.1">
      <path opacity="0.1"
        d="M101.377 81.976C101.397 81.8677 101.41 81.755 101.435 81.6467C101.224 81.8302 101.213 82.1418 101.158 82.418C101.13 82.5774 101.086 82.7336 101.027 82.8843C101.202 82.607 101.32 82.2985 101.377 81.976Z"
        fill="black" />
      <path opacity="0.1"
        d="M101.448 83.8013C101.558 83.517 101.633 83.2201 101.67 82.9174C101.448 83.0105 101.208 83.0521 100.967 83.0389C100.897 83.1943 100.812 83.3424 100.712 83.4809C100.964 83.5003 101.216 83.4594 101.448 83.3616C101.411 83.6642 101.337 83.9612 101.226 84.2455C101.365 84.2488 101.501 84.2124 101.618 84.1407C101.736 84.069 101.831 83.965 101.891 83.8411C101.946 83.7407 101.991 83.6348 102.024 83.5251C101.959 83.6157 101.872 83.6885 101.772 83.7368C101.671 83.7851 101.56 83.8073 101.448 83.8013Z"
        fill="black" />
      <path opacity="0.1"
        d="M103.394 82.2986C103.079 82.2677 102.698 82.1594 102.494 82.4003C102.445 82.467 102.409 82.5418 102.388 82.6213C102.368 82.6788 102.35 82.7384 102.334 82.7981C102.545 82.6323 102.886 82.7207 103.172 82.7495C103.434 82.7708 103.697 82.7223 103.933 82.6089C104.17 82.4955 104.372 82.3213 104.519 82.1042C104.587 81.9969 104.637 81.8798 104.668 81.7572C104.516 81.9445 104.321 82.0918 104.098 82.1862C103.876 82.2806 103.634 82.3192 103.394 82.2986Z"
        fill="black" />
    </g>
    <path d="M108.683 99.7195L112.062 103.773L111.621 107.863L107.537 101.488L108.683 99.7195Z" fill="#DCE6F2" />
    <path opacity="0.1"
      d="M112.06 103.773L111.646 107.62L111.619 107.863L107.934 102.109L107.537 101.488L107.653 101.309L108.681 99.7195L108.909 99.9935L112.06 103.773Z"
      fill="black" />
    <path
      d="M113.815 94.2323C112.672 94.5593 111.579 95.682 110.629 97.0455C109.986 97.9863 109.412 98.9715 108.909 99.9935C108.597 100.617 108.322 101.216 108.094 101.738L107.934 102.109C107.549 103.017 107.334 103.625 107.334 103.625C107.334 103.625 98.5807 97.061 99.9657 96.619C100.431 96.4709 101.043 95.4764 101.648 94.2234L101.723 94.0643C102.106 93.2599 102.483 92.3627 102.818 91.5185C103.502 89.7837 104.01 88.2765 104.01 88.2765C104.01 88.2765 117.305 93.2378 113.815 94.2323Z"
      fill="#EFB7B9" />
    <path
      d="M119.052 87.9075C119.052 87.9075 121.072 91.5539 123.787 91.0566C126.501 90.5594 125.385 89.0986 125.385 89.0986L119.052 87.9075Z"
      fill="#444053" />
    <path
      d="M115.136 214.128C113.346 214.943 109.297 214.128 109.297 214.128L107.591 214.022C105.375 213.88 101.665 213.642 100.353 213.536C98.439 213.379 98.9087 212.597 98.9087 212.597V207.869L108.198 205.523C108.198 205.523 111.87 206.776 112.876 207.869C113.831 208.913 114.389 208.11 116.093 208.411C116.177 208.426 116.266 208.444 116.359 208.466C117.977 208.835 118.854 208.981 119.373 210.318C119.477 210.599 119.561 210.887 119.623 211.18C120.102 213.332 116.924 213.317 115.136 214.128Z"
      fill="#A36468" />
    <path opacity="0.1"
      d="M119.373 210.318C119.04 210.525 118.69 210.704 118.327 210.853C117.108 211.407 115.949 212.084 114.717 212.607C113.485 213.131 112.158 213.505 110.824 213.405C110.126 213.354 109.412 213.184 108.745 213.383C108.333 213.542 107.944 213.757 107.591 214.022C105.375 213.88 101.665 213.642 100.353 213.536C98.439 213.379 98.9087 212.596 98.9087 212.596V212.044C98.9774 212.044 99.055 212.024 99.1436 212.017C99.6022 212.01 100.059 212.078 100.495 212.219C101.457 212.479 102.414 212.736 103.376 212.992C103.455 212.694 103.594 212.416 103.785 212.173C103.975 211.931 104.213 211.73 104.484 211.582C105.033 211.291 105.649 211.15 106.27 211.173C107.761 211.193 109.173 211.898 110.662 211.969C111.078 212.007 111.497 211.937 111.879 211.765C112.082 211.664 112.262 211.516 112.461 211.403C112.781 211.249 113.118 211.135 113.465 211.065C114.442 210.823 115.4 210.514 116.335 210.141C116.601 210.037 116.911 209.849 116.876 209.567C116.829 209.191 116.237 209.147 116.082 208.802C116.055 208.74 116.042 208.672 116.045 208.604C116.048 208.536 116.067 208.47 116.1 208.411C116.184 208.426 116.273 208.444 116.366 208.466C117.977 208.835 118.854 208.981 119.373 210.318Z"
      fill="black" />
    <path
      d="M113.244 224.47C111.138 225.43 106.374 224.47 106.374 224.47L104.369 224.353C101.772 224.188 97.3974 223.911 95.8529 223.781C93.5993 223.595 94.1533 222.676 94.1533 222.676V217.105L105.084 214.342C105.084 214.342 109.406 215.816 110.589 217.105C111.712 218.331 112.362 217.388 114.376 217.741C114.476 217.759 114.58 217.781 114.688 217.805C116.592 218.247 117.624 218.413 118.234 219.986C118.357 220.317 118.456 220.656 118.529 221.001C119.078 223.533 115.349 223.514 113.244 224.47Z"
      fill="#A36468" />
    <path opacity="0.1"
      d="M118.229 219.987C117.838 220.23 117.426 220.441 117 220.616C115.566 221.268 114.201 222.064 112.752 222.68C111.302 223.297 109.74 223.735 108.169 223.62C107.349 223.56 106.509 223.355 105.732 223.593C105.244 223.782 104.786 224.038 104.369 224.353C101.772 224.188 97.3974 223.911 95.8529 223.781C93.5993 223.595 94.1533 222.676 94.1533 222.676V222.026C94.2451 222.011 94.3375 222.001 94.4303 221.995C94.9701 221.986 95.5078 222.065 96.0213 222.232L99.4095 223.142C99.5039 222.791 99.6691 222.463 99.895 222.177C100.121 221.892 100.403 221.656 100.724 221.483C101.369 221.139 102.095 220.973 102.826 221.001C104.581 221.025 106.241 221.854 107.994 221.938C108.482 221.982 108.974 221.901 109.421 221.701C109.663 221.58 109.864 221.405 110.108 221.275C110.483 221.092 110.88 220.958 111.289 220.877C112.432 220.59 113.554 220.226 114.648 219.79C114.961 219.666 115.327 219.445 115.284 219.114C115.229 218.672 114.533 218.619 114.349 218.212C114.318 218.139 114.304 218.059 114.308 217.98C114.312 217.9 114.334 217.822 114.371 217.752C114.471 217.77 114.575 217.792 114.684 217.816C116.587 218.241 117.62 218.413 118.229 219.987Z"
      fill="black" />
    <path
      d="M108.479 186.241L107.888 200.126C107.888 200.126 107.001 202.961 107.482 203.772C107.963 204.583 108.774 205.392 108.479 205.872C108.185 206.351 104.639 211.536 103.493 209.547C102.348 207.558 101.218 198.939 101.218 198.939L102.275 188.294L108.479 186.241Z"
      fill="#444053" />
    <path
      d="M111.045 151.647L112.69 153.839V172.906C112.69 172.906 113.17 177.989 112.69 179.039C112.209 180.088 109.771 182.188 109.771 182.188L107.721 171.691L108.165 160.586L111.045 151.647Z"
      fill="#444053" />
    <path opacity="0.1"
      d="M108.479 186.241L107.888 200.126C107.888 200.126 107.001 202.961 107.482 203.772C107.963 204.583 108.774 205.392 108.479 205.872C108.185 206.351 104.639 211.536 103.493 209.547C102.348 207.558 101.218 198.939 101.218 198.939L102.275 188.294L108.479 186.241Z"
      fill="black" />
    <path opacity="0.1"
      d="M111.045 151.647L112.69 153.839V172.906C112.69 172.906 113.17 177.989 112.69 179.039C112.209 180.088 109.771 182.188 109.771 182.188L107.721 171.691L108.165 160.586L111.045 151.647Z"
      fill="black" />
    <path
      d="M112.69 143.514V153.828L110.844 161.857C110.844 161.857 110.252 181.231 110.768 183.587C111.285 185.943 108.996 188.155 108.996 188.155C108.996 188.155 107.666 188.303 107.666 189.333C107.666 190.362 105.45 193.31 105.45 193.31L105.523 199.056C105.523 199.056 106.485 209.812 105.007 211.874C103.529 213.936 105.523 214.232 105.523 214.232C103.677 220.272 94.8136 218.873 94.0137 218.21C93.2137 217.547 94.0137 204.508 94.0137 204.508C94.0137 204.508 95.9947 184.619 97.5459 183.735C99.097 182.851 97.6212 181.746 98.1375 180.42C98.6538 179.094 97.6212 175.485 97.6212 175.485C97.6212 175.485 97.178 171.211 96.0701 169.149C94.9621 167.087 95.1083 161.415 95.1083 161.415C95.1083 161.415 92.006 157.289 91.0842 155.669C90.1624 154.049 89.5685 149.85 89.7901 146.681C89.9408 144.539 91.0687 141.421 91.7844 139.627C92.1279 138.767 92.3761 138.21 92.3761 138.21L92.5866 138.265L104.69 141.426L112.69 143.514Z"
      fill="#444053" />
    <path opacity="0.1"
      d="M113.815 94.2322C112.672 94.5593 111.579 95.6819 110.629 97.0455H110.381C108.987 97.0464 107.618 96.6806 106.412 95.9848C105.206 95.2891 104.205 94.2881 103.511 93.0831C103.221 92.5837 102.988 92.0538 102.815 91.503C103.5 89.7682 104.008 88.261 104.008 88.261C104.008 88.261 117.305 93.2378 113.815 94.2322Z"
      fill="black" />
    <path
      d="M118.303 88.7074C118.304 89.9165 118.028 91.11 117.495 92.1959C116.961 93.2818 116.185 94.2311 115.226 94.9707C114.267 95.7102 113.15 96.2203 111.962 96.4617C110.774 96.703 109.546 96.6692 108.373 96.3628C107.2 96.0563 106.113 95.4855 105.197 94.6943C104.28 93.903 103.557 92.9124 103.085 91.7988C102.612 90.6852 102.402 89.4783 102.471 88.2711C102.54 87.0638 102.886 85.8885 103.482 84.8356C103.723 84.4077 104.003 84.0037 104.32 83.6289C104.843 83.0081 105.457 82.4701 106.141 82.0334C107.298 81.3004 108.626 80.8791 109.994 80.8108C111.363 80.7425 112.726 81.0294 113.95 81.6435C115.174 82.2576 116.218 83.178 116.979 84.3146C117.74 85.4512 118.192 86.7653 118.291 88.1284C118.296 88.3228 118.303 88.5151 118.303 88.7074Z"
      fill="#EFB7B9" />
    <path opacity="0.1"
      d="M111.646 107.62L111.619 107.864L107.934 102.118C107.549 103.026 107.334 103.634 107.334 103.634C107.334 103.634 98.5807 97.061 99.9657 96.619C100.431 96.471 101.043 95.4765 101.648 94.2235L101.723 94.0643C102.365 95.9737 106.099 99.7903 107.653 101.32C107.832 101.497 107.981 101.643 108.096 101.749L108.333 101.97L108.457 102.093C109.022 102.675 111.406 105.238 111.646 107.62Z"
      fill="black" />
    <path
      d="M114.4 127.116L113.997 140.06L113.926 142.365C113.926 142.365 109.148 141.923 104.69 141.437C101.1 141.046 97.7165 140.624 97.1957 140.376C96.531 140.064 95.1061 139.824 93.9827 139.671C93.114 139.554 92.4315 139.492 92.4315 139.492C92.4315 139.492 92.1767 139.567 91.7844 139.638C90.9291 139.793 89.4267 139.919 88.5514 139.161C87.4324 138.19 90.3729 134.666 91.1064 133.819L91.2681 133.636L90.9911 131.083L90.271 124.465C90.271 124.465 89.8278 120.652 89.163 118.608C88.9853 118.027 88.857 117.432 88.7797 116.829C88.5327 114.962 88.6592 113.065 89.1519 111.247C89.3624 110.474 89.4961 109.683 89.5508 108.885C89.6616 106.84 95.9216 98.9394 97.4727 98.2212C98.1705 97.8967 98.732 97.3383 99.0593 96.6433C99.1674 96.4248 99.2485 96.194 99.3009 95.956C99.9657 93.0831 101.648 94.2235 101.648 94.2235C102.053 96.471 108.331 102.42 108.331 102.42L108.455 102.544C109.078 103.181 111.852 106.169 111.655 108.719C111.615 109.668 111.757 110.616 112.073 111.512C113.35 115.522 114.084 119.684 114.256 123.888L114.4 127.116Z"
      fill="#DCE6F2" />
    <path opacity="0.1"
      d="M105.506 111.746C105.506 111.746 103.954 115.503 102.791 116.111C101.628 116.719 106.06 117.393 105.506 111.746Z"
      fill="black" />
    <path opacity="0.1"
      d="M106.669 118.763C106.669 118.763 103.123 119.205 103.123 119.868C103.123 120.531 106.669 118.763 106.669 118.763Z"
      fill="black" />
    <path opacity="0.1"
      d="M110.38 123.072C110.38 123.072 105.228 134.011 103.788 134.343C102.348 134.674 110.38 123.072 110.38 123.072Z"
      fill="black" />
    <path opacity="0.1"
      d="M108.233 102.975L103.972 104.823L98.8289 97.0742C98.937 96.8557 99.0181 96.6249 99.0704 96.3869C99.7352 93.514 101.417 94.6544 101.417 94.6544C101.823 96.9019 108.1 102.851 108.1 102.851L108.233 102.975Z"
      fill="black" />
    <path
      d="M108.455 102.533L104.194 104.381L99.0505 96.6322C99.1585 96.4137 99.2396 96.1829 99.292 95.9449C99.9568 93.072 101.639 94.2123 101.639 94.2123C102.044 96.4598 108.322 102.409 108.322 102.409L108.455 102.533Z"
      fill="#DCE6F2" />
    <path opacity="0.1"
      d="M113.926 142.365C113.926 142.365 109.148 141.923 104.69 141.437L112.69 143.525V145.956C112.339 146.272 112.036 146.436 111.839 146.352C110.917 145.965 103.394 144.749 103.394 144.749C103.394 144.749 99.0239 142.54 94.3084 139.888C94.194 139.824 94.083 139.755 93.976 139.68C93.4262 139.308 92.9524 138.834 92.58 138.285C91.7091 137.028 91.2837 135.412 91.0998 133.828C90.9964 132.92 90.9579 132.006 90.9845 131.092C91.0074 130.056 91.1021 129.023 91.2682 128C90.8121 124.039 90.5902 120.054 90.6034 116.067C90.6588 109.879 96.4756 107.669 96.4756 107.669C107.167 106.73 103.852 123.967 103.852 123.967C103.852 123.967 103.234 128.829 103.066 129.326C102.897 129.824 102.292 130.652 102.374 131.813C102.456 132.973 104.499 134.361 104.499 134.361C104.499 134.361 106.494 135.293 107.316 136.674C107.914 137.693 111.801 139.074 113.997 140.06L113.926 142.365Z"
      fill="black" />
    <path opacity="0.1"
      d="M117.507 83.8014C117.511 84.1654 117.435 84.5259 117.285 84.8578C117.172 85.1286 117.04 85.3914 116.891 85.6445C116.658 86.1101 116.327 86.5201 115.92 86.8467C115.408 87.2113 114.761 87.313 114.148 87.4611C113.534 87.6091 112.896 87.8456 112.545 88.3671C112.356 88.7024 112.229 89.0694 112.171 89.45C112.112 89.8303 111.96 90.1902 111.728 90.4975C111.607 90.6475 111.439 90.7533 111.252 90.7981C111.064 90.8429 110.867 90.8242 110.691 90.745C110.505 90.6204 110.365 90.44 110.29 90.2301C110.037 89.6622 109.973 89.0323 109.871 88.4202C109.769 87.808 109.625 87.1782 109.248 86.6854C108.871 86.1926 108.204 85.8677 107.613 86.06C107.415 86.136 107.234 86.2511 107.082 86.3985C106.93 86.5458 106.809 86.7223 106.726 86.9174C106.563 87.308 106.45 87.718 106.392 88.1373C106.117 89.6371 105.793 91.1281 105.419 92.6102C105.408 92.671 105.383 92.7284 105.346 92.7782C105.287 92.8367 105.207 92.87 105.124 92.871C104.628 92.9373 104.152 92.5903 103.651 92.6279C103.599 92.6313 103.548 92.6394 103.498 92.6522C102.688 91.2488 102.331 89.6311 102.474 88.0183C102.617 86.4054 103.254 84.8755 104.298 83.6357L104.338 83.6246C104.671 83.5067 104.974 83.3165 105.224 83.0677C105.544 82.7485 105.84 82.4065 106.11 82.0445L106.288 81.8235C106.797 81.2116 107.377 80.6619 108.016 80.186C108.19 80.0435 108.391 79.9355 108.606 79.8677C108.79 79.832 108.978 79.826 109.164 79.8501C109.929 79.9417 110.701 79.9705 111.471 79.9362C112.007 79.8521 112.548 79.7975 113.091 79.7727C114.493 79.8125 115.69 80.8003 116.576 81.8832C117.053 82.4379 117.478 83.0766 117.507 83.8014Z"
      fill="black" />
    <path
      d="M102.448 85.0456C102.14 85.5495 101.583 85.892 101.375 86.4445C101.069 87.2467 101.586 88.2456 101.111 88.9616C100.954 89.2025 100.695 89.3815 100.606 89.6577C100.455 90.124 100.868 90.6213 100.761 91.1008C100.655 91.5804 100.021 91.9848 100.189 92.4533C100.289 92.6576 100.464 92.8159 100.677 92.8953C101.013 93.0874 101.399 93.1729 101.785 93.1406C102.39 93.0411 102.84 92.4489 103.454 92.4047C103.952 92.3693 104.429 92.7141 104.925 92.65C105.008 92.6471 105.087 92.6132 105.147 92.555C105.184 92.5057 105.209 92.4481 105.22 92.387C105.592 90.9064 105.917 89.4154 106.195 87.9141C106.251 87.4947 106.363 87.0845 106.527 86.6942C106.61 86.4995 106.731 86.3234 106.883 86.1761C107.036 86.0288 107.216 85.9135 107.413 85.8368C108.005 85.6467 108.67 85.9694 109.049 86.4622C109.428 86.955 109.572 87.5848 109.674 88.197C109.776 88.8091 109.84 89.439 110.09 90.0069C110.166 90.2176 110.308 90.3986 110.494 90.524C110.826 90.7163 111.274 90.5638 111.528 90.2765C111.762 89.9691 111.914 89.6082 111.972 89.2268C112.029 88.8469 112.156 88.4806 112.346 88.1461C112.696 87.6246 113.337 87.3881 113.948 87.2401C114.56 87.092 115.205 86.9881 115.721 86.6235C116.127 86.2973 116.458 85.8881 116.692 85.4235C117.02 84.8534 117.325 84.2346 117.299 83.5782C117.27 82.8622 116.844 82.2235 116.39 81.6666C115.504 80.5838 114.305 79.5959 112.902 79.5584C112.36 79.581 111.819 79.6356 111.282 79.7219C110.512 79.7564 109.741 79.7269 108.976 79.6335C108.79 79.6113 108.601 79.618 108.417 79.6534C108.202 79.7189 108.002 79.8272 107.83 79.9716C107.191 80.4468 106.61 80.9957 106.099 81.607C105.77 82.042 105.414 82.4553 105.031 82.8445C104.781 83.0937 104.478 83.2846 104.145 83.4036C103.923 83.4655 103.702 83.4213 103.491 83.4898C102.838 83.6953 102.751 84.5462 102.448 85.0456Z"
      fill="#965D7B" />
    <path opacity="0.1"
      d="M123.787 91.0544C122.014 91.3793 120.545 89.9495 119.732 88.9064C119.482 88.5896 119.255 88.2558 119.052 87.9075L125.136 89.0522L125.382 89.0986C125.382 89.0986 126.501 90.5594 123.787 91.0544Z"
      fill="black" />
    <g opacity="0.1">
      <path opacity="0.1"
        d="M100.761 90.4687C100.786 90.1797 100.742 89.8889 100.633 89.6201C100.633 89.6422 100.613 89.6643 100.606 89.6864C100.511 89.9826 100.639 90.2897 100.721 90.5969C100.739 90.5556 100.752 90.5127 100.761 90.4687Z"
        fill="black" />
      <path opacity="0.1"
        d="M101.289 86.8511C101.266 87.1567 101.272 87.4637 101.306 87.7682C101.329 87.4626 101.323 87.1556 101.289 86.8511Z"
        fill="black" />
      <path opacity="0.1"
        d="M116.678 84.7848C116.445 85.2504 116.114 85.6604 115.708 85.987C115.196 86.3516 114.551 86.4533 113.935 86.6014C113.319 86.7494 112.683 86.9859 112.333 87.5074C112.143 87.8428 112.016 88.2097 111.958 88.5903C111.901 88.9716 111.748 89.3324 111.515 89.64C111.26 89.9273 110.813 90.082 110.48 89.8875C110.294 89.7621 110.153 89.581 110.077 89.3704C109.827 88.8024 109.76 88.1748 109.66 87.5605C109.561 86.9461 109.412 86.3185 109.035 85.8257C108.659 85.3329 107.992 85.008 107.4 85.2003C107.202 85.2766 107.022 85.3919 106.87 85.5392C106.717 85.6865 106.596 85.8628 106.514 86.0577C106.35 86.448 106.238 86.8582 106.181 87.2776C105.905 88.7789 105.58 90.2698 105.206 91.7505C105.196 91.8116 105.171 91.8692 105.133 91.9184C105.074 91.9767 104.995 92.0106 104.912 92.0135C104.415 92.0776 103.939 91.7328 103.44 91.7682C102.826 91.8124 102.377 92.4046 101.772 92.5019C101.386 92.5364 100.999 92.4507 100.664 92.2566C100.51 92.1905 100.371 92.0926 100.258 91.9693C100.206 92.0433 100.172 92.1281 100.158 92.2173C100.144 92.3065 100.15 92.3978 100.176 92.4842C100.274 92.6899 100.449 92.8488 100.664 92.9262C100.999 93.1203 101.386 93.206 101.772 93.1715C102.377 93.0742 102.826 92.482 103.44 92.4378C103.939 92.4024 104.415 92.7472 104.912 92.6831C104.995 92.6802 105.074 92.6463 105.133 92.5881C105.171 92.5388 105.196 92.4812 105.206 92.4201C105.579 90.9468 105.904 89.4558 106.181 87.9472C106.238 87.5278 106.35 87.1176 106.514 86.7273C106.596 86.5324 106.717 86.3561 106.87 86.2088C107.022 86.0615 107.202 85.9462 107.4 85.8699C107.992 85.6776 108.657 86.0025 109.035 86.4953C109.414 86.9881 109.558 87.6179 109.66 88.2301C109.762 88.8422 109.827 89.472 110.077 90.04C110.153 90.2506 110.294 90.4317 110.48 90.5571C110.813 90.7494 111.26 90.5969 111.515 90.3096C111.748 90.002 111.901 89.6412 111.958 89.2599C112.016 88.8793 112.143 88.5124 112.333 88.177C112.683 87.6555 113.323 87.4212 113.935 87.271C114.546 87.1207 115.191 87.0212 115.708 86.6566C116.114 86.33 116.445 85.92 116.678 85.4544C117.006 84.8864 117.312 84.2677 117.285 83.6113C117.281 83.5269 117.272 83.4428 117.259 83.3594C117.152 83.8652 116.955 84.3479 116.678 84.7848Z"
        fill="black" />
    </g>
    <path opacity="0.1"
      d="M117.294 84.8512C117.863 85.8588 118.199 86.9797 118.28 88.1329C116.306 87.028 114.449 85.8147 113.512 85.3926C111.879 84.6567 105.771 84.7672 103.476 84.8357C103.716 84.4079 103.996 84.0039 104.313 83.6291C104.838 83.0077 105.454 82.4697 106.141 82.0335C107.051 81.4576 108.07 81.0728 109.134 80.9026C110.198 80.7324 111.286 80.7804 112.331 81.0437C113.375 81.3071 114.356 81.7801 115.211 82.434C116.066 83.0879 116.779 83.9089 117.305 84.8468L117.294 84.8512Z"
      fill="black" />
    <path opacity="0.1"
      d="M124.341 90.1174C123.275 90.4445 121.536 89.8124 119.732 88.9064C119.482 88.5896 119.255 88.2558 119.052 87.9075L125.136 89.0522C125.54 89.3263 125.642 89.7174 124.341 90.1174Z"
      fill="black" />
    <path
      d="M110.852 77.1894C110.852 77.1894 105.036 76.8579 103.4 80.007L103.137 82.7982L102.693 82.7495L102.605 84.6479C102.605 84.6479 111.495 84.2611 113.518 85.1716C115.541 86.0821 121.828 90.6699 124.347 89.8965C126.867 89.123 124.126 88.4048 124.126 88.4048C124.126 88.4048 120.658 86.9396 120.658 85.7904C120.658 84.6412 119.798 78.5706 110.852 77.1894Z"
      fill="#444053" />
    <path opacity="0.1"
      d="M99.6333 180.659C99.6333 180.659 103.345 184.25 104.952 183.974C104.952 183.974 100.409 183.587 99.6333 180.659Z"
      fill="black" />
    <path opacity="0.1"
      d="M98.8577 182.323C98.8577 182.323 99.1901 184.17 100.077 183.989C100.963 183.808 98.8577 182.323 98.8577 182.323Z"
      fill="black" />
    <path opacity="0.1"
      d="M104.675 213.2C104.675 213.2 99.405 217.288 100.294 217.399C101.182 217.509 104.675 213.2 104.675 213.2Z"
      fill="black" />
    <path d="M111.723 132.058L128.786 129.289V145.399L112.574 144.553L111.723 132.058Z" fill="#2CB674" />
    <path opacity="0.05" d="M111.723 132.058L128.786 129.289V145.399L112.574 144.553L111.723 132.058Z" fill="black" />
    <path d="M128.786 129.289L149.248 130.816L148.116 144.836L128.786 145.399V129.289Z" fill="#2CB674" />
    <path opacity="0.1" d="M128.786 129.289L149.248 130.816L148.116 144.836L128.786 145.399V129.289Z" fill="black" />
    <path d="M135.077 124.372L128.786 129.289L149.248 130.816L152.592 125.784L135.077 124.372Z" fill="#2CB674" />
    <path d="M105.545 126.688L120.906 124.823L128.786 129.289L111.723 132.058L105.545 126.688Z" fill="#2CB674" />
    <path
      d="M132.527 133.472V155.499L124.534 154.681L121.057 154.327L119.998 154.217L116.523 153.861L111.723 153.37V132.058L128.784 133.216L132.527 133.472Z"
      fill="#2CB674" />
    <path d="M149.248 130.816V152.296L142.842 153.523L139.726 154.12L132.527 155.499V133.472L149.248 130.816Z"
      fill="#2CB674" />
    <path opacity="0.05"
      d="M149.248 130.816V152.296L142.842 153.523L139.726 154.12L132.527 155.499V133.472L149.248 130.816Z"
      fill="black" />
    <path d="M105.545 136.694L111.723 132.058L132.526 133.472L129.464 138.617L105.545 136.694Z" fill="#2CB674" />
    <path opacity="0.1" d="M105.545 136.694L111.723 132.058L132.526 133.472L129.464 138.617L105.545 136.694Z"
      fill="white" />
    <path d="M149.248 130.816L132.527 133.472L137.969 138.334L155.88 135.337L149.248 130.816Z" fill="#2CB674" />
    <path opacity="0.1" d="M149.248 130.816L132.527 133.472L137.969 138.334L155.88 135.337L149.248 130.816Z"
      fill="white" />
    <path opacity="0.1" d="M142.842 153.523L139.726 154.12V149.53L142.644 148.796L142.842 153.523Z" fill="white" />
    <path opacity="0.1" d="M124.534 151.644V154.681L121.057 154.327V151.644H124.534Z" fill="white" />
    <path opacity="0.1" d="M119.998 152.601V154.217L116.523 153.861V152.601H119.998Z" fill="white" />
    <path opacity="0.1"
      d="M130.435 150.033C128.053 153.072 120.186 150.973 120.186 150.973L114.34 144.891L113.547 144.067L115.098 141.194C115.098 141.194 115.541 141.339 116.282 141.596C120.199 142.962 132.44 147.476 130.435 150.033Z"
      fill="black" />
    <path
      d="M130.213 149.591C127.831 152.63 119.964 150.531 119.964 150.531L114.119 144.449L113.326 143.625L114.877 140.752C114.877 140.752 115.32 140.897 116.06 141.154C119.978 142.52 132.219 147.034 130.213 149.591Z"
      fill="#EFB7B9" />
    <path opacity="0.1"
      d="M116.051 141.154C115.728 142.082 114.905 143.457 114.11 144.449L113.317 143.625L114.868 140.752C114.868 140.752 115.313 140.897 116.051 141.154Z"
      fill="black" />
    <path
      d="M96.6972 106.785C96.6972 106.785 90.8803 108.995 90.825 115.183C90.8117 119.17 91.0337 123.155 91.4897 127.116C91.4897 127.116 89.8278 136.343 94.5366 138.995C99.2455 141.647 103.622 143.857 103.622 143.857C103.622 143.857 111.145 145.072 112.069 145.459C112.993 145.846 116.204 140.873 115.705 140.045C115.207 139.216 108.357 137.172 107.544 135.79C106.731 134.409 104.728 133.479 104.728 133.479C104.728 133.479 102.685 132.089 102.603 130.929C102.521 129.768 103.123 128.94 103.294 128.442C103.465 127.945 104.083 123.083 104.083 123.083C104.083 123.083 107.389 105.835 96.6972 106.785Z"
      fill="#DCE6F2" />
    <path opacity="0.1"
      d="M99.3563 127.271C99.3563 127.271 91.4898 128.155 92.0991 130.918C92.0991 130.918 95.0884 128.131 99.3563 127.271Z"
      fill="black" />
    <path opacity="0.1"
      d="M99.3562 128.376C99.3562 128.376 94.8912 131.636 95.711 131.857C96.5309 132.078 99.3562 128.376 99.3562 128.376Z"
      fill="black" />
    <path opacity="0.1"
      d="M101.351 129.702C101.351 129.702 100.076 131.987 100.797 131.868C101.517 131.748 101.351 129.702 101.351 129.702Z"
      fill="black" />
    <path
      d="M183.256 80.1374C183.256 80.1374 174.835 79.6313 175.819 85.5229C175.819 85.5229 175.622 86.5638 176.568 87.0368C176.568 87.0368 176.584 86.5948 177.432 86.7473C177.735 86.798 178.042 86.8128 178.347 86.7915C178.762 86.7639 179.156 86.6017 179.469 86.3296C179.469 86.3296 181.838 85.355 182.759 81.492C182.759 81.492 183.442 80.6478 183.424 80.4313L182.002 81.039C182.002 81.039 182.487 82.0622 182.103 82.913C182.103 82.913 182.059 81.0766 181.784 81.1186C181.729 81.1186 181.046 81.4744 181.046 81.4744C181.046 81.4744 181.882 83.2556 181.25 84.5528C181.25 84.5528 181.49 82.3561 180.785 81.6025L179.783 82.186C179.783 82.186 180.761 84.0268 180.098 85.5296C180.098 85.5296 180.269 83.2246 179.573 82.3274L178.664 83.0324C178.664 83.0324 179.584 84.8489 179.023 86.0953C179.023 86.0953 178.95 83.4125 178.467 83.2092C178.467 83.2092 177.674 83.9075 177.554 84.1948C177.554 84.1948 178.181 85.5207 177.791 86.208C177.791 86.208 177.552 84.4202 177.348 84.4114C177.348 84.4114 176.557 85.5959 176.475 86.4003C176.513 85.6504 176.748 84.9235 177.155 84.292C176.699 84.378 176.279 84.5955 175.945 84.9174C175.945 84.9174 176.067 84.0799 177.35 84.0069C177.35 84.0069 178.015 83.1075 178.179 83.0523C178.179 83.0523 176.903 82.9462 176.129 83.2887C176.129 83.2887 176.81 82.4998 178.414 82.8467L179.3 82.1175C179.3 82.1175 177.621 81.8965 176.907 82.1418C176.907 82.1418 177.727 81.4434 179.542 81.9517L180.517 81.3705C180.517 81.3705 179.085 81.0611 178.232 81.1738C178.232 81.1738 179.132 80.6898 180.803 81.2136L181.501 80.902C181.501 80.902 180.45 80.6965 180.145 80.6633C179.839 80.6302 179.821 80.5462 179.821 80.5462C180.486 80.4359 181.168 80.5124 181.791 80.7672C181.791 80.7672 183.287 80.2302 183.256 80.1374Z"
      fill="#2CB674" />
    <path opacity="0.1"
      d="M208.841 109.605C208.841 109.605 200.42 109.099 201.404 114.991C201.404 114.991 201.207 116.031 202.153 116.504C202.153 116.504 202.169 116.062 203.02 116.215C203.322 116.266 203.629 116.28 203.935 116.259C204.344 116.229 204.733 116.068 205.043 115.799C205.043 115.799 207.414 114.823 208.336 110.96C208.336 110.96 209.016 110.118 208.989 109.901L207.567 110.507C207.567 110.507 208.052 111.53 207.671 112.381C207.671 112.381 207.624 110.544 207.352 110.586C207.296 110.586 206.612 110.942 206.612 110.942C206.612 110.942 207.449 112.725 206.818 114.02C206.818 114.02 207.057 111.824 206.35 111.07L205.36 111.647C205.36 111.647 206.337 113.488 205.674 114.991C205.674 114.991 205.845 112.686 205.149 111.788L204.243 112.495C204.243 112.495 205.16 114.31 204.602 115.556C204.602 115.556 204.529 112.873 204.046 112.67C204.046 112.67 203.252 113.368 203.131 113.656C203.131 113.656 203.76 114.982 203.37 115.669C203.37 115.669 203.131 113.881 202.927 113.872C202.927 113.872 202.136 115.057 202.054 115.861C202.093 115.111 202.328 114.384 202.736 113.753C202.28 113.839 201.858 114.057 201.524 114.378C201.524 114.378 201.648 113.541 202.931 113.468C202.931 113.468 203.585 112.568 203.76 112.513C203.76 112.513 202.484 112.407 201.71 112.75C201.71 112.75 202.39 111.961 203.993 112.319L204.879 111.589C204.879 111.589 203.197 111.368 202.486 111.614C202.486 111.614 203.306 110.915 205.12 111.424L206.095 110.842C206.095 110.842 204.662 110.535 203.809 110.646C203.809 110.646 204.711 110.162 206.381 110.686L207.079 110.374C207.079 110.374 206.029 110.168 205.721 110.135C205.413 110.102 205.397 110.018 205.397 110.018C206.063 109.908 206.746 109.984 207.37 110.239C207.37 110.239 208.868 109.698 208.841 109.605Z"
      fill="#2CB674" />
    <path opacity="0.1"
      d="M157.686 104.374C157.686 104.374 159.625 96.177 153.633 96.1482C153.633 96.1482 152.638 95.777 152.011 96.6256C152.011 96.6256 152.439 96.7162 152.149 97.525C152.048 97.811 151.981 98.1077 151.949 98.409C151.906 98.8198 151.999 99.2333 152.213 99.5869C152.213 99.5869 152.773 102.085 156.423 103.649C156.423 103.649 157.141 104.462 157.358 104.471L157.004 102.971C157.004 102.971 155.909 103.273 155.133 102.75C155.133 102.75 156.957 103.017 156.959 102.75C156.959 102.694 156.738 101.963 156.738 101.963C156.738 101.963 154.834 102.48 153.66 101.638C153.66 101.638 155.789 102.248 156.656 101.685L156.257 100.597C156.257 100.597 154.263 101.245 152.898 100.336C152.898 100.336 155.147 100.898 156.153 100.367L155.61 99.3549C155.61 99.3549 153.66 99.9471 152.523 99.1847C152.523 99.1847 155.182 99.5692 155.47 99.1317C155.47 99.1317 154.916 98.2322 154.653 98.0643C154.653 98.0643 153.243 98.4576 152.623 97.956C152.623 97.956 154.429 98.0245 154.471 97.8344C154.471 97.8344 153.436 96.8554 152.647 96.6344C153.382 96.8014 154.061 97.1563 154.617 97.6643C154.609 97.2011 154.466 96.7503 154.205 96.367C154.205 96.367 155.012 96.6322 154.87 97.914C154.87 97.914 155.645 98.7096 155.67 98.8908C155.67 98.8908 155.991 97.6554 155.785 96.8355C155.785 96.8355 156.45 97.64 155.823 99.1538L156.39 100.159C156.39 100.159 156.904 98.546 156.773 97.8035C156.773 97.8035 157.325 98.7272 156.512 100.425L156.922 101.483C156.922 101.483 157.469 100.126 157.504 99.2731C157.504 99.2731 157.83 100.241 157.026 101.795L157.216 102.533C157.216 102.533 157.598 101.536 157.682 101.24C157.766 100.944 157.852 100.942 157.852 100.942C157.849 101.614 157.658 102.272 157.301 102.843C157.301 102.843 157.591 104.385 157.686 104.374Z"
      fill="#2CB674" />
    <path opacity="0.1"
      d="M139.245 107.167C139.245 107.167 132.482 102.122 130.065 107.587C130.065 107.587 129.327 108.35 129.856 109.262C129.856 109.262 130.109 108.907 130.743 109.497C130.967 109.705 131.216 109.886 131.483 110.036C131.845 110.237 132.263 110.314 132.673 110.257C132.673 110.257 135.19 110.741 138.089 108.02C138.089 108.02 139.123 107.689 139.221 107.494L137.694 107.227C137.694 107.227 137.535 108.348 136.748 108.849C136.748 108.849 137.721 107.289 137.468 107.176C137.417 107.152 136.655 107.066 136.655 107.066C136.655 107.066 136.371 109.015 135.13 109.751C135.13 109.751 136.542 108.047 136.367 107.03L135.208 106.969C135.208 106.969 135.011 109.044 133.628 109.936C133.628 109.936 135.039 108.104 134.957 106.973L133.81 107.066C133.81 107.066 133.577 109.083 132.422 109.817C132.422 109.817 133.838 107.536 133.548 107.103C133.548 107.103 132.5 107.251 132.241 107.424C132.241 107.424 132.039 108.869 131.33 109.236C131.33 109.236 132.117 107.612 131.957 107.499C131.957 107.499 130.643 108.054 130.127 108.686C130.573 108.08 131.171 107.602 131.86 107.298C131.431 107.12 130.96 107.071 130.503 107.156C130.503 107.156 131.066 106.524 132.179 107.167C132.179 107.167 133.22 106.776 133.397 106.825C133.397 106.825 132.389 106.036 131.554 105.899C131.554 105.899 132.56 105.612 133.701 106.783L134.851 106.666C134.851 106.666 133.572 105.561 132.839 105.375C132.839 105.375 133.909 105.24 135.144 106.659L136.278 106.71C136.278 106.71 135.252 105.667 134.479 105.291C134.479 105.291 135.496 105.38 136.604 106.734L137.359 106.856C137.359 106.856 136.595 106.109 136.356 105.914C136.116 105.72 136.15 105.638 136.15 105.638C136.766 105.91 137.295 106.348 137.676 106.902C137.676 106.902 139.216 107.258 139.245 107.167Z"
      fill="#2CB674" />
    <path opacity="0.1"
      d="M161.761 60.2922C161.761 60.2922 154.998 55.2448 152.581 60.7121C152.581 60.7121 151.843 61.4746 152.372 62.3873C152.372 62.3873 152.625 62.0315 153.259 62.6215C153.484 62.8287 153.734 63.0089 154.001 63.1585C154.363 63.3597 154.781 63.4373 155.191 63.3795C155.191 63.3795 157.708 63.8635 160.607 61.1409C160.607 61.1409 161.642 60.8116 161.737 60.6149L160.21 60.3519C160.21 60.3519 160.053 61.4724 159.264 61.974C159.264 61.974 160.239 60.4138 159.986 60.3011C159.935 60.2768 159.173 60.1906 159.173 60.1906C159.173 60.1906 158.881 62.1442 157.64 62.8757C157.64 62.8757 159.049 61.1718 158.876 60.1552L157.717 60.0934C157.717 60.0934 157.518 62.1685 156.137 63.0591C156.137 63.0591 157.549 61.227 157.467 60.0956L156.321 60.1884C156.321 60.1884 156.086 62.2083 154.932 62.942C154.932 62.942 156.35 60.6613 156.06 60.2282C156.06 60.2282 155.012 60.3762 154.752 60.5486C154.752 60.5486 154.551 61.9939 153.842 62.3607C153.842 62.3607 154.628 60.7364 154.469 60.6215C154.469 60.6215 153.155 61.1784 152.638 61.8105C153.084 61.2047 153.682 60.7261 154.371 60.4226C153.942 60.2436 153.47 60.1945 153.013 60.2812C153.013 60.2812 153.578 59.6492 154.69 60.2922C154.69 60.2922 155.732 59.8989 155.909 59.9497C155.909 59.9497 154.901 59.1608 154.065 59.0215C154.065 59.0215 155.069 58.7365 156.21 59.9055L157.36 59.7884C157.36 59.7884 156.084 58.6834 155.348 58.4956C155.348 58.4956 156.419 58.363 157.655 59.7818L158.79 59.8304C158.79 59.8304 157.764 58.7873 156.988 58.4138C156.988 58.4138 158.008 58.5022 159.115 59.8569L159.869 59.9784C159.869 59.9784 159.102 59.2403 158.863 59.0503C158.624 58.8602 158.657 58.7762 158.657 58.7762C159.273 59.0482 159.802 59.4859 160.184 60.0403C160.184 60.0403 161.724 60.3762 161.761 60.2922Z"
      fill="#2CB674" />
    <path opacity="0.1"
      d="M187.603 66.6854C187.603 66.6854 184.9 58.7054 179.801 61.8413C179.801 61.8413 178.76 62.0623 178.678 63.1031C178.678 63.1031 179.088 62.9529 179.269 63.7926C179.337 64.0914 179.439 64.3813 179.573 64.6567C179.756 65.0274 180.055 65.3289 180.424 65.5164C180.424 65.5164 182.223 67.3396 186.159 66.7363C186.159 66.7363 187.198 67.0501 187.388 66.9418L186.281 65.8567C186.281 65.8567 185.514 66.6898 184.579 66.6567C184.579 66.6567 186.269 65.923 186.13 65.6865C186.101 65.6401 185.523 65.1385 185.523 65.1385C185.523 65.1385 184.18 66.5816 182.739 66.4865C182.739 66.4865 184.869 65.881 185.303 64.9396L184.386 64.2346C184.386 64.2346 183.043 65.8302 181.397 65.7816C181.397 65.7816 183.613 65.0722 184.173 64.091L183.176 63.5186C183.176 63.5186 181.846 65.0501 180.468 65.0015C180.468 65.0015 182.932 63.9252 182.939 63.4037C182.939 63.4037 181.993 62.933 181.68 62.9285C181.68 62.9285 180.692 64.0048 179.908 63.9075C179.908 63.9075 181.476 63.0125 181.41 62.8291C181.41 62.8291 180.014 62.544 179.227 62.7739C179.939 62.5268 180.703 62.4697 181.443 62.6081C181.19 62.2189 180.829 61.9117 180.404 61.7241C180.404 61.7241 181.228 61.523 181.78 62.681C181.78 62.681 182.861 62.9484 182.977 63.0877C182.977 63.0877 182.595 61.87 181.986 61.2821C181.986 61.2821 182.977 61.6158 183.247 63.2313L184.262 63.7838C184.262 63.7838 183.843 62.1462 183.338 61.5739C183.338 61.5739 184.297 62.0689 184.506 63.9363L185.414 64.6191C185.414 64.6191 185.161 63.1783 184.736 62.4313C184.736 62.4313 185.525 63.081 185.667 64.8247L186.218 65.3506C186.218 65.3506 186.015 64.3031 185.93 64.007C185.846 63.7109 185.915 63.691 185.915 63.691C186.267 64.2643 186.454 64.9236 186.453 65.5959C186.453 65.5959 187.526 66.7429 187.603 66.6854Z"
      fill="#2CB674" />
    <path opacity="0.1"
      d="M169.96 67.0789C169.96 67.0789 161.562 66.1463 162.255 72.0888C162.255 72.0888 162.005 73.1186 162.92 73.6357C162.92 73.6357 162.958 73.1937 163.807 73.3926C164.106 73.457 164.413 73.4874 164.719 73.4832C165.134 73.4758 165.534 73.3338 165.861 73.0788C165.861 73.0788 168.278 72.2236 169.406 68.4115C169.406 68.4115 170.129 67.6048 170.113 67.386L168.662 67.9208C168.662 67.9208 169.105 68.9661 168.662 69.7971C168.662 69.7971 168.708 67.9606 168.44 67.9894C168.385 67.9894 167.684 68.3076 167.684 68.3076C167.684 68.3076 168.429 70.1308 167.733 71.4015C167.733 71.4015 168.083 69.2181 167.416 68.4313L166.386 68.9617C166.386 68.9617 167.272 70.8512 166.53 72.3186C166.53 72.3186 166.818 70.0247 166.169 69.0943L165.227 69.7573C165.227 69.7573 166.051 71.6159 165.429 72.8335C165.429 72.8335 165.493 70.1507 165.021 69.923C165.021 69.923 164.192 70.586 164.057 70.8601C164.057 70.8601 164.618 72.2081 164.194 72.8821C164.194 72.8821 164.046 71.0855 163.851 71.0678C163.851 71.0678 163 72.2103 162.876 73.0169C162.953 72.2691 163.225 71.5544 163.665 70.944C163.205 71.0074 162.774 71.2033 162.424 71.5076C162.424 71.5076 162.588 70.6788 163.873 70.67C163.873 70.67 164.571 69.8059 164.759 69.7595C164.759 69.7595 163.49 69.5893 162.699 69.8921C162.699 69.8921 163.419 69.1363 165.001 69.5761L165.934 68.8932C165.934 68.8932 164.247 68.5529 163.534 68.7739C163.534 68.7739 164.389 68.1109 166.175 68.7186L167.179 68.186C167.179 68.186 165.763 67.8059 164.906 67.8744C164.906 67.8744 165.83 67.4325 167.472 68.0446L168.185 67.7684C168.185 67.7684 167.146 67.5098 166.84 67.4612C166.534 67.4126 166.523 67.3286 166.523 67.3286C167.193 67.2519 167.871 67.3621 168.482 67.6468C168.482 67.6468 169.976 67.1717 169.96 67.0789Z"
      fill="#2CB674" />
    <path opacity="0.1"
      d="M243.441 132.089C243.441 132.089 235.047 131.156 235.74 137.092C235.74 137.092 235.49 138.122 236.405 138.639C236.405 138.639 236.443 138.197 237.291 138.394C237.591 138.46 237.897 138.491 238.204 138.484C238.619 138.478 239.02 138.336 239.345 138.08C239.345 138.08 241.763 137.225 242.88 133.415C242.88 133.415 243.602 132.606 243.587 132.389L242.135 132.922C242.135 132.922 242.579 133.969 242.135 134.8C242.135 134.8 242.182 132.962 241.914 132.993C241.858 132.993 241.158 133.309 241.158 133.309C241.158 133.309 241.903 135.132 241.207 136.403C241.207 136.403 241.557 134.221 240.89 133.432L239.86 133.965C239.86 133.965 240.746 135.854 240.006 137.322C240.006 137.322 240.292 135.028 239.642 134.095L238.701 134.758C238.701 134.758 239.525 136.617 238.902 137.832C238.902 137.832 238.967 135.15 238.495 134.924C238.495 134.924 237.668 135.587 237.531 135.861C237.531 135.861 238.093 137.209 237.668 137.883C237.668 137.883 237.52 136.087 237.325 136.069C237.325 136.069 236.474 137.211 236.35 138.018C236.426 137.27 236.698 136.555 237.138 135.945C236.678 136.007 236.247 136.203 235.897 136.509C235.897 136.509 236.061 135.678 237.347 135.669C237.347 135.669 238.047 134.805 238.233 134.761C238.233 134.761 236.963 134.588 236.172 134.891C236.172 134.891 236.892 134.137 238.477 134.577L239.408 133.894C239.408 133.894 237.741 133.58 237.017 133.797C237.017 133.797 237.872 133.134 239.658 133.74L240.662 133.209C240.662 133.209 239.246 132.829 238.388 132.898C238.388 132.898 239.312 132.456 240.954 133.068L241.668 132.789C241.668 132.789 240.628 132.531 240.323 132.484C240.017 132.438 240.006 132.352 240.006 132.352C240.676 132.274 241.354 132.383 241.965 132.668C241.965 132.668 243.463 132.184 243.441 132.089Z"
      fill="#2CB674" />
    <path opacity="0.1"
      d="M256.273 139.907C256.273 139.907 247.879 138.977 248.572 144.911C248.572 144.911 248.324 145.941 249.237 146.458C249.237 146.458 249.275 146.016 250.124 146.215C250.423 146.28 250.728 146.309 251.034 146.303C251.447 146.295 251.846 146.154 252.171 145.901C252.171 145.901 254.586 145.046 255.703 141.233C255.703 141.233 256.428 140.427 256.41 140.208L254.959 140.741C254.959 140.741 255.402 141.788 254.959 142.619C254.959 142.619 255.005 140.783 254.737 140.811C254.682 140.811 253.982 141.127 253.982 141.127C253.982 141.127 254.726 142.951 254.03 144.221C254.03 144.221 254.38 142.04 253.713 141.253L252.683 141.784C252.683 141.784 253.569 143.673 252.829 145.141C252.829 145.141 253.115 142.847 252.466 141.916L251.524 142.579C251.524 142.579 252.348 144.438 251.728 145.655C251.728 145.655 251.79 142.97 251.318 142.745C251.318 142.745 250.491 143.408 250.354 143.682C250.354 143.682 250.917 145.03 250.491 145.704C250.491 145.704 250.343 143.907 250.148 143.89C250.148 143.89 249.297 145.032 249.175 145.839C249.252 145.091 249.523 144.377 249.962 143.766C249.502 143.829 249.071 144.025 248.721 144.33C248.721 144.33 248.887 143.499 250.172 143.492C250.172 143.492 250.87 142.628 251.059 142.581C251.059 142.581 249.789 142.411 248.998 142.714C248.998 142.714 249.718 141.958 251.302 142.398L252.233 141.715C252.233 141.715 250.567 141.401 249.842 141.618C249.842 141.618 250.698 140.955 252.484 141.563L253.487 141.03C253.487 141.03 252.071 140.65 251.214 140.718C251.214 140.718 252.138 140.276 253.78 140.889L254.493 140.612C254.493 140.612 253.454 140.354 253.151 140.305C252.847 140.257 252.831 140.173 252.831 140.173C253.501 140.096 254.179 140.206 254.79 140.491C254.79 140.491 256.295 140.002 256.273 139.907Z"
      fill="#2CB674" />
    <path opacity="0.1"
      d="M227.783 74.049C227.783 74.049 221.02 69.0037 218.602 74.4688C218.602 74.4688 217.864 75.2313 218.394 76.144C218.394 76.144 218.646 75.7882 219.28 76.3782C219.505 76.5865 219.753 76.7675 220.02 76.9174C220.382 77.1183 220.8 77.1959 221.21 77.1384C221.21 77.1384 223.727 77.6224 226.628 74.902C226.628 74.902 227.661 74.5705 227.758 74.376L226.236 74.102C226.236 74.102 226.076 75.2224 225.29 75.7241C225.29 75.7241 226.263 74.1639 226.01 74.0512C225.959 74.0269 225.199 73.9407 225.199 73.9407C225.199 73.9407 224.913 75.8898 223.672 76.6257C223.672 76.6257 225.084 74.9219 224.909 73.9053L223.75 73.8434C223.75 73.8434 223.552 75.9186 222.17 76.8114C222.17 76.8114 223.583 74.9793 223.499 73.8479L222.351 73.9407C222.351 73.9407 222.13 75.9583 220.964 76.692C220.964 76.692 222.382 74.4114 222.09 73.9782C222.09 73.9782 221.042 74.1263 220.783 74.2987C220.783 74.2987 220.583 75.744 219.874 76.1108C219.874 76.1108 220.658 74.4865 220.499 74.3738C220.499 74.3738 219.185 74.9285 218.669 75.5606C219.115 74.9554 219.712 74.477 220.401 74.1727C219.973 73.995 219.501 73.9459 219.045 74.0313C219.045 74.0313 219.61 73.3992 220.723 74.0423C220.723 74.0423 221.762 73.6512 221.939 73.6998C221.939 73.6998 220.931 72.9108 220.096 72.7738C220.096 72.7738 221.102 72.4865 222.243 73.6578L223.393 73.5407C223.393 73.5407 222.117 72.4357 221.381 72.2501C221.381 72.2501 222.451 72.1153 223.685 73.534L224.822 73.5849C224.822 73.5849 223.794 72.5418 223.021 72.1661C223.021 72.1661 224.04 72.2545 225.146 73.6092L225.901 73.7307C225.901 73.7307 225.137 72.9838 224.897 72.7893C224.658 72.5948 224.694 72.5307 224.694 72.5307C225.309 72.8034 225.837 73.241 226.218 73.7948C226.218 73.7948 227.754 74.1396 227.783 74.049Z"
      fill="#2CB674" />
    <path opacity="0.1"
      d="M233.008 110.473C233.008 110.473 230.677 102.378 225.434 105.285C225.434 105.285 224.384 105.446 224.253 106.493C224.253 106.493 224.669 106.363 224.813 107.209C224.867 107.513 224.956 107.81 225.079 108.093C225.244 108.474 225.529 108.791 225.89 108.995C225.89 108.995 227.605 110.896 231.563 110.471C231.563 110.471 232.587 110.829 232.782 110.732L231.734 109.596C231.734 109.596 230.929 110.396 229.999 110.321C229.999 110.321 231.718 109.658 231.585 109.422C231.559 109.373 231.005 108.845 231.005 108.845C231.005 108.845 229.6 110.228 228.164 110.067C228.164 110.067 230.32 109.559 230.794 108.644L229.908 107.897C229.908 107.897 228.494 109.43 226.852 109.311C226.852 109.311 229.086 108.699 229.702 107.746L228.731 107.13C228.731 107.13 227.324 108.599 225.959 108.489C225.959 108.489 228.47 107.523 228.501 107.004C228.501 107.004 227.574 106.491 227.262 106.473C227.262 106.473 226.227 107.503 225.441 107.371C225.441 107.371 227.049 106.546 226.992 106.361C226.992 106.361 225.609 106.014 224.813 106.206C225.534 105.993 226.298 105.971 227.029 106.142C226.795 105.742 226.448 105.419 226.032 105.214C226.032 105.214 226.865 105.048 227.362 106.23C227.362 106.23 228.428 106.544 228.538 106.69C228.538 106.69 228.213 105.455 227.63 104.843C227.63 104.843 228.605 105.218 228.802 106.845L229.79 107.444C229.79 107.444 229.445 105.786 228.966 105.203C228.966 105.203 229.901 105.74 230.028 107.614L230.914 108.336C230.914 108.336 230.726 106.887 230.336 106.127C230.336 106.127 231.096 106.812 231.158 108.557L231.685 109.11C231.685 109.11 231.53 108.054 231.463 107.753C231.397 107.452 231.463 107.41 231.463 107.41C231.791 107.998 231.949 108.666 231.918 109.338C231.918 109.338 232.928 110.527 233.008 110.473Z"
      fill="#2CB674" />
    <path opacity="0.1"
      d="M181.062 128.714C181.062 128.714 176.535 121.603 172.331 125.859C172.331 125.859 171.369 126.301 171.538 127.351C171.538 127.351 171.903 127.107 172.28 127.881C172.416 128.155 172.584 128.412 172.781 128.646C173.045 128.965 173.407 129.188 173.811 129.282C173.811 129.282 175.994 130.626 179.673 129.105C179.673 129.105 180.756 129.163 180.916 129.015L179.586 128.219C179.586 128.219 179.039 129.214 178.124 129.401C178.124 129.401 179.591 128.296 179.393 128.093C179.356 128.053 178.673 127.704 178.673 127.704C178.673 127.704 177.714 129.423 176.291 129.673C176.291 129.673 178.217 128.579 178.416 127.567L177.355 127.101C177.355 127.101 176.431 128.968 174.822 129.311C174.822 129.311 176.794 128.098 177.115 127.01L176.007 126.692C176.007 126.692 175.072 128.498 173.732 128.774C173.732 128.774 175.868 127.143 175.75 126.635C175.75 126.635 174.718 126.403 174.421 126.473C174.421 126.473 173.718 127.753 172.925 127.846C172.925 127.846 174.237 126.604 174.128 126.44C174.128 126.44 172.703 126.495 171.994 126.904C172.627 126.496 173.356 126.259 174.108 126.219C173.771 125.901 173.349 125.688 172.892 125.607C172.892 125.607 173.643 125.216 174.443 126.21C174.443 126.21 175.551 126.21 175.704 126.321C175.704 126.321 175.039 125.216 174.31 124.803C174.31 124.803 175.351 124.891 175.999 126.396L177.118 126.692C177.118 126.692 176.318 125.2 175.695 124.774C175.695 124.774 176.743 125.026 177.392 126.791L178.438 127.233C178.438 127.233 177.849 125.896 177.257 125.271C177.257 125.271 178.179 125.713 178.731 127.373L179.396 127.755C179.396 127.755 178.952 126.785 178.795 126.517C178.638 126.25 178.7 126.188 178.7 126.188C179.179 126.661 179.518 127.257 179.677 127.91C179.677 127.91 181.002 128.789 181.062 128.714Z"
      fill="#2CB674" />
    <path
      d="M210.815 92.3782C210.815 92.3782 206.51 85.1319 202.173 89.2556C202.173 89.2556 201.198 89.6755 201.336 90.723C201.336 90.723 201.706 90.4887 202.06 91.2733C202.187 91.5521 202.347 91.8148 202.537 92.0556C202.791 92.3815 203.146 92.6145 203.547 92.7185C203.547 92.7185 205.685 94.1285 209.41 92.7185C209.41 92.7185 210.492 92.8092 210.656 92.6655L209.355 91.8302C209.355 91.8302 208.779 92.8047 207.857 92.9661C207.857 92.9661 209.357 91.8987 209.169 91.6976C209.129 91.6556 208.46 91.2843 208.46 91.2843C208.46 91.2843 207.447 92.9749 206.022 93.1804C206.022 93.1804 207.981 92.1462 208.209 91.1429L207.163 90.6523C207.163 90.6523 206.182 92.4931 204.562 92.7871C204.562 92.7871 206.572 91.6357 206.926 90.5594L205.832 90.2059C205.832 90.2059 204.839 91.9738 203.492 92.2169C203.492 92.2169 205.677 90.6523 205.575 90.1418C205.575 90.1418 204.551 89.8766 204.245 89.9385C204.245 89.9385 203.503 91.1959 202.707 91.2644C202.707 91.2644 204.057 90.0666 203.955 89.8987C203.955 89.8987 202.528 89.9097 201.808 90.2965C202.453 89.9084 203.188 89.6951 203.941 89.6777C203.614 89.3492 203.197 89.1233 202.743 89.028C202.743 89.028 203.507 88.6589 204.294 89.6777C204.294 89.6777 205.402 89.7153 205.55 89.828C205.55 89.828 204.923 88.723 204.205 88.2677C204.205 88.2677 205.242 88.3871 205.843 89.9119L206.951 90.2434C206.951 90.2434 206.199 88.7274 205.588 88.281C205.588 88.281 206.629 88.5661 207.223 90.3495L208.254 90.8291C208.254 90.8291 207.706 89.4744 207.146 88.8401C207.146 88.8401 208.052 89.3108 208.555 90.986L209.204 91.3882C209.204 91.3882 208.788 90.4047 208.641 90.1329C208.495 89.8611 208.557 89.8014 208.557 89.8014C209.022 90.2883 209.342 90.8942 209.481 91.5517C209.481 91.5517 210.751 92.4511 210.815 92.3782Z"
      fill="#2CB674" />
    <path
      d="M183.575 107.616C183.575 107.616 183.796 99.1958 177.931 100.383C177.931 100.383 176.881 100.221 176.437 101.181C176.437 101.181 176.881 101.181 176.756 102.032C176.716 102.335 176.711 102.642 176.743 102.946C176.783 103.359 176.958 103.748 177.242 104.051C177.242 104.051 178.299 106.381 182.201 107.172C182.201 107.172 183.067 107.824 183.285 107.788L182.62 106.392C182.62 106.392 181.612 106.909 180.745 106.558C180.745 106.558 182.584 106.449 182.533 106.18C182.533 106.124 182.152 105.453 182.152 105.453C182.152 105.453 180.393 106.348 179.074 105.76C179.074 105.76 181.29 105.925 182.015 105.198L181.397 104.219C181.397 104.219 179.584 105.254 178.055 104.644C178.055 104.644 180.371 104.737 181.248 104.014L180.51 103.13C180.51 103.13 178.722 104.107 177.454 103.59C177.454 103.59 180.14 103.428 180.335 102.94C180.335 102.94 179.608 102.173 179.316 102.056C179.316 102.056 178.017 102.719 177.308 102.361C177.308 102.361 179.081 102.065 179.092 101.868C179.092 101.868 177.88 101.119 177.062 101.064C177.816 101.077 178.554 101.287 179.201 101.674C179.1 101.222 178.869 100.809 178.536 100.486C178.536 100.486 179.38 100.581 179.495 101.857C179.495 101.857 180.419 102.48 180.479 102.653C180.479 102.653 180.543 101.377 180.173 100.617C180.173 100.617 180.989 101.269 180.683 102.878L181.443 103.749C181.443 103.749 181.616 102.065 181.339 101.364C181.339 101.364 182.066 102.158 181.618 103.983L182.232 104.935C182.232 104.935 182.493 103.497 182.354 102.65C182.354 102.65 182.868 103.534 182.398 105.216L182.735 105.901C182.735 105.901 182.906 104.847 182.928 104.54C182.95 104.233 183.034 104.213 183.034 104.213C183.168 104.872 183.115 105.555 182.881 106.186C182.881 106.186 183.477 107.645 183.575 107.616Z"
      fill="#2CB674" />
    <path opacity="0.1"
      d="M193.272 214.603C196.568 214.603 199.239 214.153 199.239 213.598C199.239 213.042 196.568 212.592 193.272 212.592C189.976 212.592 187.304 213.042 187.304 213.598C187.304 214.153 189.976 214.603 193.272 214.603Z"
      fill="#2CB674" />
    <path opacity="0.1"
      d="M171.518 229.869C174.814 229.869 177.485 229.419 177.485 228.864C177.485 228.309 174.814 227.858 171.518 227.858C168.222 227.858 165.55 228.309 165.55 228.864C165.55 229.419 168.222 229.869 171.518 229.869Z"
      fill="#2CB674" />
    <path opacity="0.1"
      d="M59.0242 222.048C62.32 222.048 64.9917 221.598 64.9917 221.043C64.9917 220.487 62.32 220.037 59.0242 220.037C55.7284 220.037 53.0567 220.487 53.0567 221.043C53.0567 221.598 55.7284 222.048 59.0242 222.048Z"
      fill="#2CB674" />
    <path opacity="0.1"
      d="M216.781 228.864C220.076 228.864 222.748 228.414 222.748 227.858C222.748 227.303 220.076 226.853 216.781 226.853C213.485 226.853 210.813 227.303 210.813 227.858C210.813 228.414 213.485 228.864 216.781 228.864Z"
      fill="#2CB674" />
    <path
      d="M222.994 216.603C227.915 216.603 231.904 215.93 231.904 215.1C231.904 214.27 227.915 213.598 222.994 213.598C218.073 213.598 214.084 214.27 214.084 215.1C214.084 215.93 218.073 216.603 222.994 216.603Z"
      fill="#2CB674" />
    <path
      d="M226.688 212.641C227.095 212.311 227.391 211.865 227.537 211.363C227.648 210.855 227.43 210.247 226.945 210.062C226.4 209.854 225.817 210.23 225.374 210.61C224.931 210.99 224.428 211.425 223.849 211.346C224.146 211.077 224.368 210.736 224.494 210.356C224.62 209.976 224.645 209.57 224.567 209.178C224.542 209.015 224.473 208.862 224.368 208.736C224.064 208.413 223.517 208.552 223.154 208.806C222.001 209.615 221.68 211.176 221.673 212.581C221.558 212.075 221.656 211.547 221.653 211.034C221.651 210.521 221.507 209.929 221.066 209.66C220.795 209.509 220.49 209.433 220.18 209.439C219.661 209.421 219.083 209.472 218.731 209.85C218.287 210.318 218.405 211.107 218.786 211.618C219.167 212.128 219.75 212.457 220.286 212.815C220.715 213.071 221.082 213.419 221.359 213.834C221.39 213.892 221.416 213.953 221.436 214.015H224.685C225.412 213.65 226.086 213.188 226.688 212.641Z"
      fill="#2CB674" />
    <path
      d="M55.0178 216.369C55.0178 216.369 58.4193 216.265 59.4497 215.536C60.4801 214.806 64.6859 213.938 64.9407 215.107C65.1956 216.276 70.0551 220.917 66.2127 220.948C62.3703 220.979 57.2847 220.351 56.2609 219.728C55.2372 219.105 55.0178 216.369 55.0178 216.369Z"
      fill="#A8A8A8" />
    <path opacity="0.2"
      d="M66.277 220.541C62.4345 220.572 57.349 219.945 56.3252 219.321C55.5452 218.848 55.235 217.149 55.1308 216.364H55.0178C55.0178 216.364 55.2394 219.103 56.2565 219.724C57.2736 220.345 62.3658 220.974 66.2083 220.943C67.3162 220.943 67.6996 220.541 67.6796 219.958C67.5245 220.314 67.1013 220.535 66.277 220.541Z"
      fill="black" />
  </g>
  <defs>
    <linearGradient id="paint0_linear_7_235" x1="87.798" y1="151.083" x2="156.964" y2="151.083"
      gradientUnits="userSpaceOnUse">
      <stop stop-color="#808080" stop-opacity="0.25" />
      <stop offset="0.54" stop-color="#808080" stop-opacity="0.12" />
      <stop offset="1" stop-color="#808080" stop-opacity="0.1" />
    </linearGradient>
    <clipPath id="clip0_7_235">
      <rect width="300" height="301" fill="white" transform="translate(0.88501 0.82959)" />
    </clipPath>
  </defs>
</svg>
